<mxfile host="app.diagrams.net" modified="2023-02-23T10:48:15.704Z" agent="5.0 (Macintosh; Intel Mac OS X 10_15_7) AppleWebKit/537.36 (KHTML, like Gecko) Chrome/111.0.0.0 Safari/537.36 Edg/111.0.1660.13" etag="Q5YBoQjplpjxCNYogvLV" version="20.8.23" type="github">
  <diagram name="第 1 页" id="j60wnH63md4MC-CQXvt8">
    <mxGraphModel dx="665" dy="551" grid="1" gridSize="10" guides="1" tooltips="1" connect="1" arrows="1" fold="1" page="1" pageScale="1" pageWidth="827" pageHeight="1169" math="0" shadow="0">
      <root>
        <mxCell id="0" />
        <mxCell id="1" parent="0" />
        <mxCell id="q8SVtFiN-yoim-TC5zIr-1" value="Blue checkmark button" style="rounded=0;whiteSpace=wrap;html=1;" vertex="1" parent="1">
          <mxGeometry x="120" y="250" width="120" height="60" as="geometry" />
        </mxCell>
        <mxCell id="q8SVtFiN-yoim-TC5zIr-2" style="edgeStyle=orthogonalEdgeStyle;rounded=0;orthogonalLoop=1;jettySize=auto;html=1;exitX=1;exitY=0.5;exitDx=0;exitDy=0;entryX=0;entryY=0.5;entryDx=0;entryDy=0;startArrow=none;" edge="1" parent="1" target="q8SVtFiN-yoim-TC5zIr-6">
          <mxGeometry relative="1" as="geometry">
            <mxPoint x="240" y="280" as="sourcePoint" />
          </mxGeometry>
        </mxCell>
        <mxCell id="q8SVtFiN-yoim-TC5zIr-3" value="Verify user success;&lt;br&gt;add a blue checkmark next to username;&lt;br&gt;go to user list" style="shape=card;whiteSpace=wrap;html=1;" vertex="1" parent="1">
          <mxGeometry x="480" y="210" width="200" height="140" as="geometry" />
        </mxCell>
        <mxCell id="q8SVtFiN-yoim-TC5zIr-4" style="edgeStyle=orthogonalEdgeStyle;rounded=0;orthogonalLoop=1;jettySize=auto;html=1;exitX=1;exitY=0.5;exitDx=0;exitDy=0;" edge="1" parent="1" source="q8SVtFiN-yoim-TC5zIr-6" target="q8SVtFiN-yoim-TC5zIr-3">
          <mxGeometry relative="1" as="geometry" />
        </mxCell>
        <mxCell id="q8SVtFiN-yoim-TC5zIr-5" style="edgeStyle=orthogonalEdgeStyle;rounded=0;orthogonalLoop=1;jettySize=auto;html=1;exitX=0.5;exitY=1;exitDx=0;exitDy=0;" edge="1" parent="1" source="q8SVtFiN-yoim-TC5zIr-6" target="q8SVtFiN-yoim-TC5zIr-8">
          <mxGeometry relative="1" as="geometry" />
        </mxCell>
        <mxCell id="q8SVtFiN-yoim-TC5zIr-6" value="Verify User&lt;br&gt;System" style="ellipse;whiteSpace=wrap;html=1;aspect=fixed;" vertex="1" parent="1">
          <mxGeometry x="320" y="240" width="80" height="80" as="geometry" />
        </mxCell>
        <mxCell id="q8SVtFiN-yoim-TC5zIr-7" value="user id" style="text;html=1;align=center;verticalAlign=middle;resizable=0;points=[];autosize=1;strokeColor=none;fillColor=none;" vertex="1" parent="1">
          <mxGeometry x="240" y="250" width="60" height="30" as="geometry" />
        </mxCell>
        <mxCell id="q8SVtFiN-yoim-TC5zIr-8" value="User entity (database)" style="shape=partialRectangle;whiteSpace=wrap;html=1;left=0;right=0;fillColor=none;rounded=0;strokeColor=default;fontFamily=Helvetica;fontSize=12;fontColor=default;" vertex="1" parent="1">
          <mxGeometry x="290" y="410" width="140" height="50" as="geometry" />
        </mxCell>
        <mxCell id="q8SVtFiN-yoim-TC5zIr-9" value="user id" style="text;html=1;align=center;verticalAlign=middle;resizable=0;points=[];autosize=1;strokeColor=none;fillColor=none;" vertex="1" parent="1">
          <mxGeometry x="300" y="350" width="60" height="30" as="geometry" />
        </mxCell>
      </root>
    </mxGraphModel>
  </diagram>
</mxfile>
